<?xml version="1.0" encoding="utf-8"?>
<svg viewBox="67.341 126.517 177.039 209.559" xmlns="http://www.w3.org/2000/svg">
  <defs>
    <clipPath clipPathUnits="userSpaceOnUse" id="clipPath849">
      <path d="M 0,842 H 595 V 0 H 0 Z" id="path847"/>
    </clipPath>
  </defs>
  <g id="g841" transform="matrix(1.333333, 0, 0, -1.333333, -241.050018, 792.648254)">
    <g id="g843">
      <g id="g845" clip-path="url(#clipPath849)">
        <g id="g851" transform="translate(245.7305,410.5791)">
          <path d="M 0,0 C -0.01,0.467 0.051,0.859 0.16,1.183 0.638,2.581 2.045,2.664 2.721,1.739 2.952,1.423 3.098,0.988 3.091,0.448 2.933,-12.142 1.477,-24.993 0.222,-32.482 c -1.094,-6.532 -2.925,-15.09 -2.925,-16.34 0,-1.25 0.076,-2.08 1.099,-2.798 0.898,-0.629 2.917,0 2.856,2.105 -0.249,8.326 4.974,3.039 5.673,9.25 0.759,6.734 -2.758,13.658 2.023,17.056 2.257,1.605 6.05,7.091 3.219,10.629 -2.152,2.69 -1.545,6.366 -0.359,6.815 12.592,4.772 -1.464,13.504 -0.404,19.578 0.942,5.386 11.02,6.68 12.532,3.405 0,0 0.051,-0.287 0.227,-0.869 1.938,-6.404 5.907,-19.108 8.173,-26.828 1.343,-4.574 2.377,-5.26 5.33,-3.346 1.049,0.679 8.58,3.409 9.831,3.296 1.036,-0.094 2.345,-0.739 1.043,-1.591 -4.754,-1.668 -13.708,-4.176 -12.849,-8.127 0.68,-3.127 7.49,-2.75 7.802,-2.75 1.25,0 10.047,1 11.297,1 2.688,0 3.733,-0.794 3.951,-2.468 1.247,-9.608 -13.389,-8.312 -21.178,-6.627 -5.753,1.245 -6.707,4.664 -11.907,4.507 -3.214,-0.097 -5.985,-1.62 -8.999,-5.885 -2.923,-4.135 -4.371,-7.54 -5.74,-11.489 -2.991,-8.629 -5.48,-16.323 -11.563,-14.834 -3.597,0.881 -5.833,4.045 -5.155,8.202 0,0 2.356,12.584 3.476,19.849 C -0.471,-18.731 0.183,-9.046 0,0" style="fill:#000000;fill-opacity:1;fill-rule:nonzero;stroke:none" id="path853"/>
        </g>
        <g id="g855" transform="translate(262.2324,490.7227)">
          <path d="m 0,0 c 3.977,0.727 7.215,1.16 9.248,-4.256 0.742,-1.976 1.66,-4.632 2.044,-5.752 0.115,-0.336 -0.114,-0.669 -0.26,-0.735 -9.241,-4.244 -10.962,-6.827 -10.258,-9.116 0.305,-0.991 1.132,-3.66 1.562,-5.318 0.425,-1.64 0.669,-3.396 2.28,-2.275 1.38,0.96 2.739,2.099 5.168,3.041 1.141,0.441 1.468,-0.898 0.301,-1.549 -5.958,-2.918 -7.142,-5.049 -7.23,-7 -0.453,-2.212 -0.703,-5.609 -0.703,-7.677 0,-0.562 -1.045,-5.291 1.527,-3.013 1.164,1.031 2.759,2.43 4.394,3.597 2.348,1.676 8.114,4.776 8.814,4.419 0.063,-0.033 0.092,-0.053 0.169,-0.096 0.683,-0.392 0.544,-1.385 -0.309,-1.669 -2.732,-0.912 -6.246,-2.921 -8.516,-4.634 -2.487,-1.878 -4.943,-4.643 -5.393,-6.045 -0.843,-1.745 -2.843,-2.911 -3.078,1.565 -0.138,2.637 -3.222,4.291 -6.964,4.047 -1.704,-0.111 -4.814,-3.449 -6.584,-3.602 -2.983,-0.257 -3.012,2.748 -4.213,6.349 -0.986,2.961 -4.267,-3.166 -5.39,-6.637 -1.7,-5.256 -2.912,-10.546 -2.263,-16.266 1.077,-9.489 1.633,-12.944 5.716,-20.771 0,0 1.877,-10.477 0.068,-10.624 -2.707,-0.218 -2.505,3.42 -3.707,7.449 -0.756,2.534 -1.84,5.491 -2.53,7.344 -1.974,5.297 -6.437,7.209 -4.237,16.594 1.767,7.538 0.534,15.011 -0.066,20.729 -0.213,3.124 1.986,10.606 5.006,14.909 4.632,6.601 6.938,0.011 10.888,14.182 C -13.125,-7.818 -7.385,-1.35 0,0" style="fill:#000000;fill-opacity:1;fill-rule:nonzero;stroke:none" id="path857"/>
        </g>
        <g id="g859" transform="translate(349.9727,415.5352)">
          <path d="m 0,0 c -1.284,-3.891 -3.144,-1.359 -5.003,-2.588 -4.213,-2.784 3.202,-7.129 -2.19,-12.595 -3.523,-3.569 -3.728,-11.705 -3.727,-13.488 0.004,-11.644 1.631,-21.035 3.721,-30.877 1.125,-5.302 0.834,-12.585 -5.715,-13.479 -7.753,-1.059 -8.666,8.717 -11.351,18.515 -1.151,4.204 -2.342,7.558 -3.549,10.772 -0.845,2.247 -1.569,4.111 -4.201,5.195 -1.968,0.812 -2.373,4.285 0.879,3.196 2.968,-0.994 4.62,-3.77 5.005,-4.797 2.996,-8 3.592,-9.923 6.635,-19.451 2.188,-6.854 3.72,-6.139 4.912,-5.763 2.086,0.658 2.695,3.305 1.647,6.174 -0.764,2.091 -3.043,1.109 -1.604,5.51 1.057,3.233 1.006,7.471 0.842,8.71 -1.68,12.658 -14.423,14.113 -8.5,17.509 3.772,2.162 -1.151,4.574 -6.366,2.122 -1.045,-0.491 -3.98,2.677 -2.499,3.378 12.166,5.766 12.958,9.249 12.882,14.349 -0.019,1.303 -0.886,2.994 -1.445,4.965 -2.425,8.569 -5.334,17.279 -6.523,20.51 -1.78,4.835 1.817,9.01 4.999,8.813 10.631,-0.659 2.146,-13.85 8.76,-14.908 3.975,-0.635 3.825,4.129 3.95,7.342 0.234,6.038 5.544,10.424 9.394,5.521 C 3.131,21.861 2.293,6.945 0,0" style="fill:#000000;fill-opacity:1;fill-rule:nonzero;stroke:none" id="path861"/>
        </g>
        <g id="g863" transform="translate(289.042,496.3438)">
          <path d="m 0,0 c 5.251,6.144 12.842,1.743 13.304,1.524 5.654,-2.677 12.202,-3.796 17.165,-3.782 5.814,0.018 8.809,-1.546 11.825,-4.567 5.669,-5.681 7.307,-5.948 11.35,-7.742 6.969,-3.093 6.281,-5.774 6.82,-7.223 3.412,-9.177 8.315,-12.232 9.695,-14.974 5.398,-10.724 3.613,-15.904 3.454,-19.425 -0.093,-2.06 0.72,-10.563 1,-12 1.407,-7.226 -1.142,-5.667 -1.767,-10.49 -0.45,-3.476 -0.726,-4.1 -1.719,-6.177 -1.859,-3.89 -2.001,-6.293 -2.514,-7.833 -0.833,-2.5 -2.301,-2.421 -3.333,-4 -4.147,-6.346 -5.894,-8.84 -11.095,-13.762 -0.211,-0.2 -0.855,-0.501 -0.997,-0.314 -0.914,1.219 -0.397,5.571 2.454,7.925 2.481,2.619 3.071,3.561 4.689,5.924 5.705,9.317 7.416,14.892 8.798,23.771 1.825,11.738 0.475,20.56 -0.399,24.586 -1.91,8.796 -5.125,6.322 -7.545,14.417 -0.843,2.817 -3,5.531 -6.112,8.02 -3.294,2.635 -5.852,1.847 -8.822,2.266 -2.29,0.323 -6.643,6.708 -9,5.5 -4.441,-2.274 -4.427,-6.786 -0.218,-10.264 5.782,-4.777 -1.705,-7.383 -2.218,-14.318 -0.458,-6.179 -5.702,-2.048 -7.461,2.72 l -2.459,5.385 c -0.239,0.491 -0.631,1.196 -1.063,1.548 l -10.471,9.745 c -0.437,0.385 -0.761,0.829 -0.972,1.335 l -3.144,7.324 c -1.434,3.157 -2.678,3.825 -7.731,3.047 -0.576,-0.089 -0.731,0.297 -0.97,0.933 C -1.891,-4.435 -2.005,-2.346 0,0" style="fill:#000000;fill-opacity:1;fill-rule:nonzero;stroke:none" id="path865"/>
        </g>
        <g id="g867" transform="translate(272.584,368.7822)">
          <path d="m 0,0 c 4.795,-2.257 11.14,-3.64 15.031,-4.121 -1.872,-1.558 -3.468,-3.308 -4.501,-5.005 -1.748,-2.871 -3,-5.09 -4.512,-5.757 -0.793,-0.349 -1.4,-0.272 -2.903,0.104 -1.785,0.752 -2.697,1.448 -2.403,5.475 C 1.112,-3.808 0.626,-2.625 0,0" style="fill:#000000;fill-opacity:1;fill-rule:nonzero;stroke:none" id="path869"/>
        </g>
        <g id="g871" transform="translate(268.8711,378.6396)">
          <path d="m 0,0 c 6.285,-3.445 15.076,-6.141 21.577,-7.107 7.029,-1.045 15.389,-0.524 24.798,2.41 0.23,0.071 1.309,-0.052 1.43,-0.119 1.797,-1.011 2.385,-2.286 1.415,-3.488 -0.133,-0.165 -0.355,-0.264 -0.542,-0.332 -4.686,-1.695 -18.426,-3.681 -26.18,-2.691 -8.402,1.072 -18.079,4.069 -25.524,8.306 -0.077,0.043 -0.455,0.327 -0.562,0.704 -0.404,1.448 1.32,2.379 3.009,2.468 C -0.485,0.157 -0.062,0.034 0,0" style="fill:#000000;fill-opacity:1;fill-rule:nonzero;stroke:none" id="path873"/>
        </g>
        <g id="g875" transform="translate(356.7725,397.5088)">
          <path d="m 0,0 c 0,-9.546 4.593,-21.179 5.144,-23.51 0.794,-3.361 -1.818,-5.835 -5.318,-5.835 -4.125,0 -7.051,11.061 -12.206,13.741 C -7.225,-11.583 -1.753,-5.216 0,0" style="fill:#000000;fill-opacity:1;fill-rule:nonzero;stroke:none" id="path877"/>
        </g>
      </g>
    </g>
  </g>
</svg>