<?xml version="1.0" encoding="utf-8"?>
<!-- Generator: Adobe Illustrator 16.0.0, SVG Export Plug-In . SVG Version: 6.00 Build 0)  -->
<!DOCTYPE svg PUBLIC "-//W3C//DTD SVG 1.1//EN" "http://www.w3.org/Graphics/SVG/1.1/DTD/svg11.dtd">
<svg version="1.1" id="Ebene_1" xmlns="http://www.w3.org/2000/svg" xmlns:xlink="http://www.w3.org/1999/xlink" x="0px" y="0px"
	 width="492px" height="73px" viewBox="0 0 492 73" enable-background="new 0 0 492 73" xml:space="preserve">
<g>
	<rect x="1.259" y="1.235" fill="#FFFFFF" width="17.7" height="51.039"/>
	<polygon fill="#FFFFFF" points="33.383,52.271 47.255,52.271 47.255,24.797 61.748,52.271 65.473,52.271 79.757,25.004 
		79.757,52.271 97.457,52.271 97.457,1.235 78.93,1.235 66.922,24.283 54.604,1.235 33.383,1.235 	"/>
	<polygon fill="#FFFFFF" points="112.092,52.271 125.961,52.271 125.961,24.797 140.454,52.271 144.18,52.271 158.462,25.004 
		158.462,52.271 176.163,52.271 176.163,1.235 157.636,1.235 145.628,24.283 133.309,1.235 112.092,1.235 	"/>
	<polygon fill="#FFFFFF" points="190.797,52.271 236.548,52.271 236.548,41.466 208.497,41.466 208.497,31.588 225.989,31.588 
		225.989,20.887 208.497,20.887 208.497,12.039 236.548,12.039 236.548,1.235 190.797,1.235 	"/>
	<g>
		<path fill="#FFFFFF" d="M282.536,17.388c0,5.146-3.003,6.173-9.007,6.173h-8.585V12.037h8.382
			C279.431,12.037,282.536,12.862,282.536,17.388 M300.341,16.874c0-10.806-7.871-15.639-21.532-15.639h-31.568v51.036h17.702
			V34.469h3.514c4.763,0,7.559,0.72,9.424,5.043l5.38,12.759h19.563c-2.899-2.778-3.833-5.863-5.383-9.568l-1.657-4.115
			c-1.345-3.19-3.209-5.763-5.795-7.515C296.302,28.295,300.341,23.667,300.341,16.874"/>
		<path fill="#FFFFFF" d="M377.546,30.869c0,15.33,10.765,22.636,26.5,22.636c18.526,0,26.393-9.878,26.393-22.225V1.235h-13.974
			v26.342c0,8.952-2.9,13.994-10.557,13.994c-8.277,0-10.557-5.042-10.557-14.098V1.235h-17.804V30.869z"/>
	</g>
	<polygon fill="#FFFFFF" points="438.832,1.232 438.832,12.451 455.911,12.451 455.911,52.271 474.127,52.271 474.127,12.451 
		491,12.451 491,1.232 	"/>
	<g>
		<path fill="#FFFFFF" d="M367.588,35.572h0.004v-7.717h-26.611v7.717h11.633c-2.4,3.918-6.728,6.925-12.353,6.925
			c-8.383,0-13.144-5.454-13.144-15.334v-1.645c0-9.876,5.795-14.508,13.765-14.508c7.662,0,12.526,2.983,15.527,9.26l9.73-2.468
			c-2.175-9.878-10.973-17.801-25.258-17.801c-19.457,0-32.919,9.773-32.919,26.443c0,18.212,13.045,27.061,29.711,27.061
			c7.452,0,13.038-2.262,17.08-6.481c0.309,1.852,0.724,3.601,1.448,5.247h13.354c-1.452-3.395-1.969-7.201-1.969-11.935V35.572z"/>
		<path fill="#FFFFFF" d="M462.603,72.36h6.633v-1.849h-4.074v-7.116h-2.559V72.36z M399.617,66.403l0.902,2.43h-1.76
			L399.617,66.403z M395.326,72.36h2.211l0.64-1.836h2.982l0.683,1.836h2.692l-3.448-8.965h-2.458L395.326,72.36z M333.388,72.362
			h2.457l3.376-8.967h-2.21l-2.182,5.886l-2.051-5.886h-2.75L333.388,72.362z M269.385,72.362h2.558v-8.967h-2.558V72.362z
			 M203.127,65.244h2.793v7.116h2.558v-7.116h2.794v-1.849h-8.145V65.244z M137.639,70.106c0.422,1.43,1.876,2.428,4.131,2.428
			c2.313,0,3.782-1.069,3.782-2.849c0-3.37-5.441-2.719-5.441-4.252c0-0.463,0.479-0.666,1.018-0.666
			c1.223,0,1.995,0.549,2.445,1.561l1.817-0.333l-0.116-0.403c-0.422-1.418-1.803-2.429-4.146-2.429
			c-1.891,0-3.491,0.881-3.491,2.616c0,3.676,5.296,2.734,5.296,4.369c0,0.434-0.319,0.782-1.092,0.782
			c-1.222,0-2.211-0.492-2.503-1.534l-1.817,0.303L137.639,70.106z M72.588,72.36h6.793v-1.849h-4.234v-1.723h2.561v-1.821h-2.561
			v-1.724h4.234v-1.849h-6.793V72.36z M7.828,72.36h2.559v-3.572h2.561v-1.821h-2.561v-1.724h4.074v-1.849H7.828V72.36z"/>
	</g>
</g>
</svg>
